<?xml version="1.0" standalone="no"?>
<!DOCTYPE svg PUBLIC "-//W3C//DTD SVG 20010904//EN"
 "http://www.w3.org/TR/2001/REC-SVG-20010904/DTD/svg10.dtd">
<svg version="1.0" xmlns="http://www.w3.org/2000/svg"
 width="16.000000pt" height="16.000000pt" viewBox="0 0 16.000000 16.000000"
 preserveAspectRatio="xMidYMid meet">
<metadata>
Created by potrace 1.11, written by Peter Selinger 2001-2013
</metadata>
<g transform="translate(0.000000,16.000000) scale(0.002286,-0.002286)"
fill="#000000" stroke="none">
<path d="M5792 6910 c0 -14 2 -19 5 -12 2 6 2 18 0 25 -3 6 -5 1 -5 -13z"/>
<path d="M5789 6834 c-2 -51 -2 -54 -13 -142 -11 -96 -33 -212 -51 -282 -68
-260 -153 -456 -282 -646 -118 -177 -258 -308 -426 -402 -99 -56 -275 -109
-354 -107 -44 2 -32 -8 15 -12 256 -20 483 -157 707 -424 48 -57 131 -192 185
-304 52 -105 132 -316 144 -379 3 -11 11 -50 20 -86 8 -36 18 -81 21 -100 3
-19 8 -42 10 -50 2 -8 7 -46 11 -85 4 -38 8 -79 9 -90 1 -11 3 -42 4 -69 1
-68 10 -53 16 30 44 581 286 1099 639 1366 147 110 295 171 469 191 21 3 41 8
45 12 4 3 -5 4 -19 2 -33 -6 -177 24 -252 53 -375 143 -683 558 -817 1100 -28
115 -46 212 -55 305 -14 137 -17 160 -21 164 -2 2 -5 -18 -5 -45z"/>
<path d="M2399 6789 c-1 -88 -16 -310 -24 -350 -2 -10 -6 -45 -10 -78 -3 -33
-8 -70 -11 -83 -2 -13 -7 -43 -10 -68 -3 -25 -17 -101 -30 -170 -14 -69 -28
-136 -30 -150 -25 -135 -122 -448 -209 -670 -36 -93 -190 -411 -241 -500 -180
-309 -426 -601 -679 -802 -296 -236 -675 -389 -1022 -412 -30 -2 -38 -12 -10
-12 44 -1 154 -15 225 -30 239 -49 443 -135 662 -279 98 -65 108 -72 219 -165
325 -271 648 -742 835 -1215 26 -66 51 -129 56 -140 26 -55 141 -443 154 -515
2 -14 11 -54 19 -90 8 -36 18 -82 21 -102 3 -21 10 -57 15 -80 6 -24 13 -65
16 -93 6 -48 10 -72 20 -140 14 -89 32 -305 34 -409 2 -89 9 -64 15 54 4 58 8
123 11 145 2 22 7 67 10 100 10 89 22 191 30 235 2 14 6 41 9 60 3 19 19 103
36 185 128 622 375 1187 705 1615 57 75 46 62 150 177 90 99 287 283 304 283
3 0 17 10 31 23 21 19 144 102 215 144 196 118 534 224 747 236 46 3 41 12 -9
15 -21 2 -78 9 -128 18 -688 115 -1281 627 -1679 1449 -66 136 -166 387 -205
515 -18 58 -36 116 -41 130 -27 74 -114 460 -126 559 -3 25 -7 47 -9 51 -2 3
-6 37 -10 75 -4 39 -9 72 -10 75 -2 3 -6 41 -10 85 -4 44 -9 94 -11 110 -1 17
-6 77 -9 135 -6 103 -15 146 -16 79z"/>
<path d="M5244 3352 c-3 -105 -40 -353 -70 -462 -23 -84 -76 -244 -84 -255 -4
-5 -13 -27 -19 -47 -14 -43 -96 -204 -136 -269 -206 -327 -515 -544 -798 -561
-47 -3 -57 -14 -14 -14 124 -2 288 -63 434 -160 211 -141 428 -430 528 -704
39 -108 76 -217 79 -235 2 -11 11 -47 19 -80 9 -33 19 -76 22 -95 3 -19 10
-60 15 -90 9 -56 23 -187 24 -227 0 -13 3 -23 7 -23 4 0 7 12 6 28 -2 40 12
153 33 273 119 672 491 1175 954 1291 44 11 96 20 114 20 38 0 34 11 -6 15
-397 47 -750 378 -945 885 -51 133 -97 297 -116 418 -6 36 -13 74 -15 85 -5
27 -18 151 -20 192 -1 39 -11 51 -12 15z"/>
</g>
</svg>
